<?xml version="1.0" standalone="no"?><!DOCTYPE svg PUBLIC "-//W3C//DTD SVG 1.1//EN" "http://www.w3.org/Graphics/SVG/1.1/DTD/svg11.dtd"><svg t="1709012528126" class="icon" viewBox="0 0 1024 1024" version="1.1" xmlns="http://www.w3.org/2000/svg" p-id="997" xmlns:xlink="http://www.w3.org/1999/xlink" width="200" height="200"><path d="M924.62 656.742l-11.08-0.3a2.118 2.118 0 0 1-1.6-0.88c-10.36-14.28-23.914-24.474-40.66-30.58a2.55 2.55 0 0 1-1.38-1.26c-5.08-10.64-12.008-19.8-20.78-27.48l-21.56-17.64c-38.6-114.42-135.14-199.92-253.04-222.2-68.94-13.04-143.02-4.34-206.52 26.78-83.534 40.934-141.114 106.266-172.74 196l-16.42 12.66c-10.694 8.44-19.274 19.14-25.74 32.1-0.284 0.58-0.78 1.024-1.38 1.24-16.614 5.92-30.008 15.974-40.18 30.16-0.392 0.54-0.966 0.874-1.56 0.9l-11.26 0.46c7.052-93.96 40.826-175.694 101.32-245.2 159.14-182.82 443.9-189.8 611.2-13.3 67.96 71.694 105.752 157.874 113.38 258.54z" fill="#DC1C4B" p-id="998"></path><path d="M827.56 578.602c-1.52 0.46-1.82 0.22-2.78-0.26-28.028-13.92-57.054-15.926-87.08-6.02-93.64-189.1-358-186.22-452.66 0-30.64-9.92-60.568-7.634-89.78 6.86 31.626-89.734 89.206-155.066 172.74-196 63.5-31.12 137.58-39.82 206.52-26.78 117.9 22.28 214.44 107.78 253.04 222.2z" fill="#FDA35D" p-id="999"></path><path d="M737.7 572.322c-37.268 15.32-59.608 42.78-67.02 82.38-0.13 0.668-0.602 1.164-1.16 1.22l-8.82 0.9c-14.46-73.58-77.02-126.34-152.14-124.6-73.04 1.7-132.52 53.54-146.16 124.8l-8.82-1.42c-0.56-0.082-1.022-0.6-1.14-1.28-7.508-39.68-29.974-67.014-67.4-82 94.66-186.22 359.02-189.1 452.66 0z" fill="#50B86B" p-id="1000"></path><path d="M285.04 572.322c37.426 14.986 59.892 42.32 67.4 82 0.118 0.68 0.58 1.198 1.14 1.28l8.82 1.42c26.6 7.866 42.94 24.234 49.02 49.1 4.6 18.82 0.16 34.9-16.6 44.58-2.494 1.426-5.468 2.126-8.92 2.1-18.92-0.146-37.848-0.026-56.78 0.36 2.932-4.826 4.266-8.606 4-11.34-3.36-33.22-26.9-56.6-60.06-60.4a1.41 1.41 0 0 1-1.22-1.2c-2.014-15.72-7.614-30.014-16.8-42.88-18.654-26.094-44.054-41.26-76.2-45.5l16.42-12.66c29.212-14.494 59.14-16.78 89.78-6.86zM827.56 578.602l21.56 17.64c-46.94 9.58-78.74 40.34-86.86 87.7a1.33 1.33 0 0 1-1.18 1.08c-19.734 2.174-35.774 11.22-48.12 27.14-9.588 12.374-12.708 26.04-9.36 41l-66.9-0.36c-3.934-0.026-7.428-1.174-10.48-3.44-16.92-12.6-19.74-29.16-12.88-48.9 7.612-21.866 23.4-36.414 47.36-43.64l8.82-0.9c0.558-0.056 1.03-0.552 1.16-1.22 7.412-39.6 29.752-67.06 67.02-82.38 30.026-9.906 59.052-7.9 87.08 6.02 0.96 0.48 1.26 0.72 2.78 0.26z" fill="#C8DAE5" p-id="1001"></path><path d="M178.84 591.842c32.146 4.24 57.546 19.406 76.2 45.5 9.186 12.866 14.786 27.16 16.8 42.88a1.41 1.41 0 0 0 1.22 1.2c33.16 3.8 56.7 27.18 60.06 60.4 0.266 2.734-1.068 6.514-4 11.34-153.24 0.32-243.7 0.366-271.38 0.14-4.56-0.04-8.18-4.38-10.08-8.64-18.1-40.58 9.44-81.02 51.06-87.96l11.26-0.46c0.594-0.026 1.168-0.36 1.56-0.9 10.172-14.186 23.566-24.24 40.18-30.16 0.6-0.216 1.096-0.66 1.38-1.24 6.466-12.96 15.046-23.66 25.74-32.1zM849.12 596.242c8.772 7.68 15.7 16.84 20.78 27.48 0.28 0.58 0.774 1.028 1.38 1.26 16.746 6.106 30.3 16.3 40.66 30.58 0.392 0.532 0.98 0.856 1.6 0.88l11.08 0.3c43.54 8.26 71.28 50.6 48.9 91.98-1.64 3.066-4.194 4.594-7.66 4.58l-262.26-0.14c-3.348-14.96-0.228-28.626 9.36-41 12.346-15.92 28.386-24.966 48.12-27.14a1.33 1.33 0 0 0 1.18-1.08c8.12-47.36 39.92-78.12 86.86-87.7z" fill="#E2F0FA" p-id="1002"></path></svg>